# xmcd
#
# Track frame offsets: 
#        183
#        23100
#        52070
#        68608
#        92455
#        110153
#        129690
#        165730
#
# Disc length: 2349 seconds
#
# Revision: 3
# Processed by: cddbd v1.5.2PL0 Copyright (c) Steve Scherf et al.
# Submitted via: ExactAudioCopy v0.95b4
#
DISCID=69092b08
DTITLE=Rickie Lee Jones - Pirates
DYEAR=1981
DGENRE=Pop
TTITLE0=We Belong Together
TTITLE1=Living It Up
TTITLE2=Skeletons
TTITLE3=Woody And Dutch On The Slow Train To Peking
TTITLE4=Pirates (So Long Lonely Avenue)
TTITLE5=A Lucky Guy
TTITLE6=Traces Of The Western Slopes
TTITLE7=The Returns
EXTD=Label: Warner Bros.\n7599-23432-2
EXTT0=
EXTT1=
EXTT2=
EXTT3=
EXTT4=
EXTT5=
EXTT6=
EXTT7=
PLAYORDER=
